<svg width="269" height="269" viewBox="0 0 269 269" fill="none" xmlns="http://www.w3.org/2000/svg">
<circle cx="134.102" cy="134.102" r="134.102" fill="white"/>
<path d="M198.29 134.145C198.29 169.575 169.575 198.29 134.145 198.29C98.7149 198.29 70 169.575 70 134.145C70 98.7149 98.7149 70 134.145 70C169.575 70 198.29 98.7149 198.29 134.145ZM114.1 112.095V156.195C114.1 158.375 115.277 160.379 117.182 161.432C119.061 162.509 121.391 162.459 123.245 161.331L159.327 139.282C161.106 138.179 162.208 136.25 162.208 134.145C162.208 132.04 161.106 130.111 159.327 129.008L123.245 106.959C121.391 105.605 119.061 105.781 117.182 106.858C115.277 107.911 114.1 109.915 114.1 112.095Z" fill="black"/>
</svg>
